HIERARCHY
ROOT Hips
{
    OFFSET 0.000000 0.000000 0.000000
    CHANNELS 6 Xposition Yposition Zposition Zrotation Xrotation Yrotation
    JOINT Spine
    {
        OFFSET -0.000000 0.083210 0.000000
        CHANNELS 3 Zrotation Xrotation Yrotation
        JOINT Spine1
        {
            OFFSET -0.000000 0.256334 0.000000
            CHANNELS 3 Zrotation Xrotation Yrotation
            JOINT Neck
            {
                OFFSET -0.000000 0.275576 0.002912
                CHANNELS 3 Zrotation Xrotation Yrotation
                JOINT Head
                {
                    OFFSET -0.000000 0.157287 0.020295
                    CHANNELS 3 Zrotation Xrotation Yrotation
                    End Site
                    {
                        OFFSET -0.000000 0.202951 0.000000
                    }
                }
            }
            JOINT LeftShoulder
            {
                OFFSET 0.041044 0.235234 -0.000041
                CHANNELS 3 Zrotation Xrotation Yrotation
                JOINT LeftArm
                {
                    OFFSET 0.117964 0.000000 0.000000
                    CHANNELS 3 Zrotation Xrotation Yrotation
                    JOINT LeftForeArm
                    {
                        OFFSET 0.291248 0.000000 0.000000
                        CHANNELS 3 Zrotation Xrotation Yrotation
                        JOINT LeftHand
                        {
                            OFFSET 0.245673 0.000000 0.000000
                            CHANNELS 3 Zrotation Xrotation Yrotation
                            End Site
                            {
                                OFFSET 0.152213 0.000000 0.000000
                            }
                        }
                    }
                }
            }
            JOINT RightShoulder
            {
                OFFSET -0.040052 0.235234 -0.000041
                CHANNELS 3 Zrotation Xrotation Yrotation
                JOINT RightArm
                {
                    OFFSET -0.117964 0.000000 0.000000
                    CHANNELS 3 Zrotation Xrotation Yrotation
                    JOINT RightForeArm
                    {
                        OFFSET -0.291248 0.000000 0.000000
                        CHANNELS 3 Zrotation Xrotation Yrotation
                        JOINT RightHand
                        {
                            OFFSET -0.245673 0.000000 0.000000
                            CHANNELS 3 Zrotation Xrotation Yrotation
                            End Site
                            {
                                OFFSET -0.152213 0.000000 0.000000
                            }
                        }
                    }
                }
            }
        }
    }
    JOINT LeftUpLeg
    {
        OFFSET 0.101475 0.000000 0.000000
        CHANNELS 3 Zrotation Xrotation Yrotation
        JOINT LeftLeg
        {
            OFFSET -0.000000 -0.446535 0.000000
            CHANNELS 3 Zrotation Xrotation Yrotation
            JOINT LeftFoot
            {
                OFFSET -0.000000 -0.400037 0.000000
                CHANNELS 3 Zrotation Xrotation Yrotation
                JOINT LeftToeBase
                {
                    OFFSET -0.000000 -0.065959 0.152213
                    CHANNELS 3 Zrotation Xrotation Yrotation
                    End Site
                    {
                        OFFSET -0.000000 0.000000 0.040590
                    }
                }
            }
        }
    }
    JOINT RightUpLeg
    {
        OFFSET -0.101475 0.000000 0.000000
        CHANNELS 3 Zrotation Xrotation Yrotation
        JOINT RightLeg
        {
            OFFSET -0.000000 -0.446535 0.000000
            CHANNELS 3 Zrotation Xrotation Yrotation
            JOINT RightFoot
            {
                OFFSET -0.000000 -0.400037 0.000000
                CHANNELS 3 Zrotation Xrotation Yrotation
                JOINT RightToeBase
                {
                    OFFSET -0.000000 -0.065959 0.152213
                    CHANNELS 3 Zrotation Xrotation Yrotation
                    End Site
                    {
                        OFFSET -0.000000 0.000000 0.040590
                    }
                }
            }
        }
    }
}
MOTION
Frames:    5
Frame Time:    0.008333
0.106709    0.930942    -0.003157    3.448812    -1.690586    -94.853767    -3.365468    3.498734    -4.463119    -2.768128    1.954223    -1.474192    7.663989    -11.795048    3.331754    1.264311    2.771877    3.456305    -1.486788    8.890431    -5.337857    -55.630184    41.039513    -12.717566    37.720928    -27.854473    -70.787712    16.014208    -3.086638    -17.233152    2.154736    16.174768    10.518520    63.873772    46.181007    -3.313216    -11.269160    -17.505205    73.180824    -20.678370    -12.078095    15.231851    -7.024057    -4.582758    3.287163    -1.691716    30.802698    2.556230    2.187503    -14.061529    -2.762315    -0.036248    -14.052536    -0.958776    0.675423    -33.033173    3.846814    -89.693626    88.351585    98.253212    5.973813    5.164187    -15.907001    -0.019074    -4.119832    -0.310019    
0.084765    0.936753    -0.003262    3.497223    -1.305994    -94.838715    -3.191016    3.467751    -5.034332    -2.168555    1.818984    -1.675265    7.611590    -11.684050    3.624420    0.865924    2.744942    3.826039    -1.422050    8.750670    -5.328578    -55.615181    42.472923    -13.612014    38.648632    -29.952938    -71.329018    16.594296    -4.404220    -16.729277    1.642311    16.211252    10.177119    64.167236    46.429661    -4.031587    -11.057970    -17.081545    74.113937    -20.792173    -11.638879    15.027193    -6.625157    -2.484535    2.566791    -2.159291    28.622911    3.668382    1.452428    -11.553226    -3.365819    -0.083053    -17.338848    -1.230097    1.591098    -33.956181    4.943245    -23.871304    87.111465    32.396221    6.125066    4.708441    -15.795369    -0.016732    -4.459066    -0.259471    
0.062424    0.942919    -0.003506    3.514206    -0.908311    -94.826385    -2.947585    3.403608    -5.603107    -1.673217    1.720308    -1.871073    7.574764    -11.573976    3.914188    0.563135    2.869207    4.177553    -1.386107    8.611205    -5.278176    -55.512474    43.734364    -14.310617    39.764568    -31.829353    -71.845398    15.951408    -5.140808    -16.161390    1.264545    16.297468    9.993969    64.322540    46.460403    -4.707718    -10.854206    -16.516741    74.935867    -20.788570    -11.050405    14.802918    -6.170853    -0.369848    2.002158    -2.487174    26.380274    4.661656    0.545152    -8.776348    -4.006252    -0.187650    -20.579323    -1.930130    2.531317    -34.591599    6.199987    -5.725824    84.324387    14.307451    6.364538    4.210844    -16.071665    -0.034546    -4.521561    -0.531245    
0.039560    0.949383    -0.003624    3.523905    -0.509296    -94.806419    -2.607210    3.271871    -6.147795    -1.327881    1.671933    -2.053943    7.603959    -11.455562    4.186306    0.283595    3.054325    4.510189    -1.272078    8.436602    -5.209576    -55.431534    44.846367    -14.878486    40.764523    -33.382572    -72.533936    15.130306    -5.486791    -15.639014    0.968844    16.400169    9.866103    64.495628    46.538708    -5.388427    -10.554247    -16.180643    75.676888    -20.641430    -10.844609    15.003066    -5.687893    1.819793    1.590985    -2.719730    23.922638    5.985686    -0.303744    -5.570372    -5.258818    -0.265280    -23.924959    -2.066463    3.430367    -34.956863    7.580667    1.101830    80.953964    7.334600    6.579597    3.849665    -16.450926    -0.037441    -4.784494    -0.556166    
0.016413    0.956110    -0.004011    3.419275    -0.123744    -94.841621    -2.295914    3.275460    -6.620307    -1.045340    1.498983    -2.214159    7.754956    -11.165575    4.445065    -0.040538    3.273373    4.852952    -1.073819    8.364000    -5.163522    -55.300343    45.302231    -15.344254    40.507011    -34.171623    -74.376656    15.480415    -5.477368    -14.956932    0.811811    16.714878    9.872644    64.368904    46.251297    -5.863240    -10.170869    -15.548445    76.441078    -20.861778    -10.341235    14.595214    -5.215166    4.041333    1.516879    -2.758732    21.549513    6.050595    -0.939129    -2.099631    -5.664269    -0.325468    -27.516373    -2.003670    4.336082    -34.983921    9.036355    4.006734    77.197693    4.462826    6.865435    3.409563    -17.199249    -0.041077    -4.692935    -0.617488    
